<svg width="276" height="150" viewBox="0 0 276 150" fill="none" xmlns="http://www.w3.org/2000/svg">
<path d="M8.93332 1.99999C-0.533348 6.13332 -1.20001 20 7.86665 25.4667C11.2 27.4667 14.5333 28 25.4667 28C40 28 42 28.8 42 34.9333C42 40 38.8 41.3333 25.4667 41.3333C14.9333 41.3333 14 41.0667 11.4667 37.8667C9.46665 35.3333 7.86665 34.5333 4.93332 34.9333C1.06665 35.3333 0.933318 35.4667 2.53332 39.8667C5.06665 47.7333 9.73332 49.8667 24.1333 50.4C31.8667 50.8 38.2667 50.2667 40.6667 49.3333C49.6 45.6 53.4667 36.2667 49.4667 27.8667C46.1333 20.6667 42.9333 19.4667 26.8 18.6667C15.2 18.1333 12 17.6 10.9333 15.7333C9.86665 14.1333 9.99999 12.9333 11.2 11.4667C12.6667 9.73332 15.8667 9.33332 26.9333 9.33332C39.7333 9.33332 40.9333 9.59999 41.6 12C42.1333 14 43.4667 14.6667 46.8 14.6667C52.6667 14.6667 52.9333 11.0667 47.4667 5.06666L43.6 0.666656L28.4 0.266656C17.4667 0.133323 12.1333 0.533323 8.93332 1.99999Z" fill="#38343A"/>
<path d="M170 25.3333V50.6667H174.667H179.333V39.3333V28H185.867C189.467 28 193.467 28.4 194.667 28.8C195.867 29.3333 199.2 34.4 202.133 40.1333C207.2 50.2667 207.6 50.6667 212 50.6667C214.533 50.6667 216.667 50.4 216.667 50C216.667 49.6 214.267 44.5333 211.333 38.6667C208.4 32.8 206 27.8667 206 27.4667C206 27.2 207.467 26.5333 209.2 26.1333C215.6 24.5333 219.067 13.7333 215.333 6.66665C212.533 1.46665 206.267 -1.2815e-05 187.333 -1.2815e-05H170V25.3333ZM207.733 12.2667C208.8 13.8667 208.667 15.0667 207.467 16.5333C206 18.2667 202.933 18.6667 192.533 18.6667H179.333V14V9.19999L192.8 9.59999C203.733 9.86665 206.667 10.4 207.733 12.2667Z" fill="#38343A"/>
<path d="M225.6 0.933324C225.067 1.33332 224.667 3.46666 224.667 5.59999V9.33332H235.333H246V30.1333V50.8L250.4 50.4L254.667 50L255.067 29.6L255.467 9.33332H265.333H275.333V4.66666V-9.17912e-06H250.933C237.467 -9.17912e-06 226 0.399991 225.6 0.933324Z" fill="#38343A"/>
<path d="M56.6667 26V50.6667H61.3333H66V34.5333V18.5333L73.8667 24.5333C78.2667 27.8667 82.1333 30.6667 82.6667 30.6667C83.2 30.6667 86.4 28.2667 89.8667 25.3333C93.3333 22.4 96.5333 20 97.0667 20C97.4667 20 98.1333 26.8 98.2667 34.9333L98.6667 50L103.067 50.4L107.333 50.8V26.1333C107.333 12.5333 107.067 1.33332 106.8 1.33332C106.4 1.33332 101.467 5.06665 95.7333 9.46665C90 14 84.6667 18.2667 83.8667 18.8C83.0667 19.4667 77.7333 16.2667 70.4 10.6667C63.7333 5.46665 57.8667 1.33332 57.4667 1.33332C57.0667 1.33332 56.6667 12.4 56.6667 26Z" fill="#38343A"/>
<path d="M126.667 23.3333C112.267 50.8 112.267 50.6667 118.267 50.6667C122.667 50.6667 122.933 50.4 130 36C134 27.8667 137.6 21.3333 138 21.3333C138.4 21.3333 142.267 27.8667 146.533 36C154 50.2667 154.267 50.6667 158.8 50.6667C161.333 50.6667 163.333 50.4 163.333 50C163.333 48.9333 143.867 10.2667 140.8 5.33332L138.267 1.06666L126.667 23.3333Z" fill="#38343A"/>
<path d="M128.667 54.6667C128.667 58.2667 129.067 58.6667 132.667 58.6667C136.267 58.6667 136.667 58.2667 136.667 54.6667C136.667 51.0667 136.267 50.6667 132.667 50.6667C129.067 50.6667 128.667 51.0667 128.667 54.6667Z" fill="#38343A"/>
<path d="M139.333 54.6667C139.333 58.2667 139.733 58.6667 143.333 58.6667C146.933 58.6667 147.333 58.2667 147.333 54.6667C147.333 51.0667 146.933 50.6667 143.333 50.6667C139.733 50.6667 139.333 51.0667 139.333 54.6667Z" fill="#38343A"/>
<path d="M128.667 65.3333C128.667 68.9333 129.067 69.3333 132.667 69.3333C136.267 69.3333 136.667 68.9333 136.667 65.3333C136.667 61.7333 136.267 61.3333 132.667 61.3333C129.067 61.3333 128.667 61.7333 128.667 65.3333Z" fill="#38343A"/>
<path d="M139.333 65.3333C139.333 68.9333 139.733 69.3333 143.333 69.3333C146.933 69.3333 147.333 68.9333 147.333 65.3333C147.333 61.7333 146.933 61.3333 143.333 61.3333C139.733 61.3333 139.333 61.7333 139.333 65.3333Z" fill="#38343A"/>
<path d="M0.933323 88.9333L1.33332 114L5.73332 114.4L9.99999 114.8V102.8V90.6667H26H41.8667L42.2667 102.267L42.6667 114L47.0667 114.4L51.3333 114.8V89.4667V64H46.6667H42V73.3333V82.6667H26H9.99999V73.3333V64H5.33332H0.666656L0.933323 88.9333Z" fill="#38343A"/>
<path d="M74.2667 64.9333C69.0667 66 59.7333 76 58 82.5333C53.0667 100.933 70.1333 118.267 88.4 113.333C104.933 108.933 112.4 89.0666 102.933 74.8C97.3333 66.2666 86.5333 62.6666 74.2667 64.9333ZM91.0667 75.4666C100.933 82.2666 99.8667 98.2666 89.2 103.333C83.4667 106 79.6 105.867 74.4 102.667C60 93.8666 65.7333 73.3333 82.6667 73.3333C85.6 73.3333 89.4667 74.2666 91.0667 75.4666Z" fill="#38343A"/>
<path d="M112.933 80.2666C113.467 99.0666 114.933 103.067 123.467 109.2C136.533 118.667 154.133 114 160.8 99.3333C162.667 95.2 163.333 90.6666 163.333 78.9333V64H158.667H154V72.6666V81.3333H138H122V72.6666V64H117.2H112.4L112.933 80.2666ZM154 92C154 93.4666 152 96.9333 149.467 99.7333C145.333 104.133 144.267 104.667 138.133 104.667C132.4 104.667 130.8 104 127.467 100.667C125.333 98.4 123.067 95.0666 122.667 92.9333L121.733 89.3333H137.867C153.2 89.3333 154 89.4666 154 92Z" fill="#38343A"/>
<path d="M175.6 67.3333C170.4 71.6 169.2 76.9333 171.867 83.2C174.667 89.8667 180.267 92 194.4 92C206.133 92 208.667 93.0667 208.667 98.1333C208.667 103.733 205.333 105.333 194 105.333C184.4 105.333 183.333 105.067 180.933 102C179.067 99.7333 176.933 98.6667 174 98.6667C170.267 98.6667 169.867 98.9333 170.667 101.6C173.6 111.2 179.867 114.667 194 114.667C208.933 114.667 216.267 110.267 217.6 100.267C218.4 94.2667 215.6 87.6 210.933 85.0667C209.333 84.1333 202 83.0667 194.8 82.6667C181.067 82 177.867 80.4 179.733 75.4667C180.933 72.4 207.067 72.2667 208.133 75.3333C209.067 77.6 218 78.1333 218 76C218 72.8 214 67.0667 210.667 65.6C208.667 64.6667 201.2 64 193.333 64C180.533 64 179.2 64.2667 175.6 67.3333Z" fill="#38343A"/>
<path d="M231.467 66.1333C226.533 69.6 224.667 76 224.667 89.3333C224.667 112.267 227.6 114.667 256.667 114.667H275.333V110V105.333H256.267C243.2 105.333 236.667 104.8 235.6 103.733C234.667 102.8 234 99.6 234 96.4V90.6667H250H266V86.6667V82.6667H250C235.067 82.6667 234 82.5333 234 80.1333C234 73.4667 234.4 73.3333 255.467 73.3333H275.333V68.6667V64H254.933C238.267 64 234 64.4 231.467 66.1333Z" fill="#38343A"/>
<path d="M3.46664 130.533C1.46664 134.133 1.59997 135.467 4.13331 137.867C5.33331 139.2 8.53331 140 12.1333 140C17.0666 140 18 140.4 18 142.667C18 144.8 17.0666 145.333 13.3333 145.333C10.8 145.333 7.46664 144.667 5.99997 143.733C2.39997 141.467 1.06664 143.467 3.99997 146.667C5.73331 148.667 8.13331 149.333 12.6666 149.333C19.7333 149.333 22 147.6 22 142.4C22 138 18.8 136 11.4666 136C7.46664 136 5.99997 135.467 5.99997 134C5.99997 131.467 16.6666 131.2 19.0666 133.6C21.2 135.733 22.9333 133.733 21.2 130.933C20.1333 129.333 17.4666 128.533 12.2666 128.267C5.99997 127.867 4.66664 128.267 3.46664 130.533Z" fill="#38343A"/>
<path d="M55.2 133.6C58.1333 137.6 59.3333 140.667 59.3333 144.267C59.3333 147.867 59.8666 149.333 61.3333 149.333C62.8 149.333 63.3333 147.867 63.3333 144.267C63.3333 140.667 64.4 138 67.3333 134.667C69.4666 132.133 71.2 129.6 71.3333 128.933C71.4666 126.667 67.3333 128.267 64.6666 131.6L61.7333 135.333L58.6666 131.6C56.9333 129.6 54.5333 128 53.3333 128C51.6 128 52 129.2 55.2 133.6Z" fill="#38343A"/>
<path d="M102.8 130C98.1333 134.667 102.4 140 110.933 140C116 140 119.2 142.4 117.067 144.533C115.6 146 107.333 145.333 104.667 143.733C101.067 141.467 99.7333 143.467 102.667 146.667C104.4 148.667 106.8 149.333 111.333 149.333C118.4 149.333 120.667 147.6 120.667 142.533C120.667 137.867 118.533 136.267 111.467 135.733C108.133 135.467 105.333 134.533 104.933 133.6C104.267 131.467 115.467 131.333 117.733 133.6C119.867 135.733 121.6 133.733 119.867 130.933C117.867 127.733 105.733 127.067 102.8 130Z" fill="#38343A"/>
<path d="M150 130C150 131.467 151.333 132 154.667 132H159.333V140.667C159.333 147.467 159.733 149.333 161.333 149.333C162.933 149.333 163.333 147.467 163.333 140.667V132H168.133C171.333 132 172.667 131.467 172.4 130.267C172 129.2 168.133 128.533 160.933 128.267C151.867 128 150 128.267 150 130Z" fill="#38343A"/>
<path d="M204.133 130.133C201.6 132.667 201.2 145.333 203.6 147.733C204.533 148.667 208.933 149.333 214.267 149.333C221.467 149.333 223.333 148.933 223.333 147.333C223.333 145.733 221.467 145.333 214.667 145.333C206.933 145.333 206 145.067 206 142.667C206 140.4 206.933 140 212.667 140C217.733 140 219.333 139.467 219.333 138C219.333 136.533 217.733 136 212.667 136C207.6 136 206 135.467 206 134C206 132.4 207.867 132 214.667 132C221.467 132 223.333 131.6 223.333 130C223.333 127.067 207.067 127.2 204.133 130.133Z" fill="#38343A"/>
<path d="M254 138.533C254 147.2 254.4 149.333 256 149.333C257.467 149.333 258 147.733 258 142.4C258 135.867 258.133 135.733 260.4 137.733C263.467 140.533 265.867 140.533 268.933 137.733C271.2 135.733 271.333 135.867 271.333 142.4C271.333 147.733 271.867 149.333 273.333 149.333C274.933 149.333 275.333 147.2 275.333 138.667V127.867L270.133 132.133L264.8 136.4L259.467 132L254 127.733V138.533Z" fill="#38343A"/>
</svg>
